<svg width="21" height="17" viewBox="0 0 21 17" fill="none" xmlns="http://www.w3.org/2000/svg">
<path opacity="0.5" d="M10.1316 10.4393C11.9737 10.4393 13.4347 8.97832 13.4347 7.13621C13.4347 5.32586 11.9419 3.83312 10.1316 3.83312C8.32124 3.83312 6.86026 5.32586 6.86026 7.13621C6.8285 8.97832 8.32124 10.4393 10.1316 10.4393ZM11.7196 11.4556H8.57533C6.06625 11.4556 4.06534 13.3613 4.06534 15.7115C4.06534 16.1879 4.44647 16.5373 4.95463 16.5373H15.3403C15.8485 16.5373 16.2614 16.1879 16.2614 15.7115C16.2614 13.3613 14.2287 11.4556 11.7196 11.4556ZM16.2614 5.35762C17.6588 5.35762 18.8022 4.246 18.8022 2.81678C18.8022 1.41932 17.6588 0.275945 16.2614 0.275945C14.8321 0.275945 13.7205 1.41932 13.7205 2.81678C13.7205 4.246 14.8321 5.35762 16.2614 5.35762ZM5.81217 7.13621C5.81217 6.97741 5.84393 6.8186 5.87569 6.6598C5.52632 6.46924 5.1452 6.37396 4.73231 6.37396H2.79492C1.23866 6.37396 0 7.7079 0 9.35944C0 9.67705 0.222323 9.93113 0.539928 9.93113H6.89202C6.22505 9.20064 5.81217 8.21606 5.81217 7.13621ZM4.06534 5.35762C5.4628 5.35762 6.60618 4.246 6.60618 2.81678C6.60618 1.41932 5.4628 0.275945 4.06534 0.275945C2.63612 0.275945 1.5245 1.41932 1.5245 2.81678C1.5245 4.246 2.63612 5.35762 4.06534 5.35762ZM17.5 6.37396H15.5626C15.1497 6.37396 14.7686 6.501 14.4193 6.6598C14.4193 6.8186 14.451 6.97741 14.451 7.13621C14.451 8.21606 14.0699 9.20064 13.4029 9.93113H19.755C20.0726 9.93113 20.3267 9.67705 20.3267 9.35944C20.3267 7.7079 19.0563 6.37396 17.5 6.37396Z" fill="#701AC7"/>
</svg>
