<svg width="519" height="290" viewBox="0 0 519 290" fill="none" xmlns="http://www.w3.org/2000/svg">
<path d="M1.872 67H14.118L19.11 54.754H42.198L47.19 67H59.748L36.348 12.01H25.272L1.872 67ZM23.4 44.146L30.654 26.44L37.908 44.146H23.4ZM66.927 67H78.783V51.556C78.783 41.572 83.619 36.814 91.497 36.814H92.121V24.412C85.101 24.1 81.201 27.844 78.783 33.616V25.192H66.927V67ZM118.198 67.936C125.764 67.936 131.38 64.972 135.28 60.136L128.494 54.13C125.218 57.172 122.332 58.42 118.354 58.42C113.05 58.42 109.306 55.612 108.136 50.23H137.23C137.308 49.138 137.386 48.046 137.386 47.11C137.386 35.254 130.99 24.412 117.028 24.412C104.86 24.412 96.358 34.24 96.358 46.174C96.358 59.122 105.64 67.936 118.198 67.936ZM107.98 42.82C108.916 37.438 112.114 33.928 117.028 33.928C122.02 33.928 125.14 37.516 125.842 42.82H107.98ZM179.591 79.714C186.689 79.714 190.121 76.516 193.319 68.014L209.387 25.192H197.063L187.937 53.662L178.421 25.192H165.863L182.243 67.156C181.229 69.262 180.137 69.886 178.109 69.886C176.549 69.886 174.599 69.184 173.039 68.248L169.061 76.828C172.103 78.622 175.301 79.714 179.591 79.714ZM234.529 67.936C247.555 67.936 257.227 58.186 257.227 46.174C257.227 34.006 247.633 24.412 234.685 24.412C221.659 24.412 211.987 34.162 211.987 46.174C211.987 58.342 221.581 67.936 234.529 67.936ZM234.685 57.718C228.133 57.718 223.687 52.336 223.687 46.174C223.687 39.856 227.743 34.63 234.529 34.63C241.081 34.63 245.527 40.012 245.527 46.174C245.527 52.492 241.471 57.718 234.685 57.718ZM279.696 67.78C285.702 67.78 289.212 64.582 291.942 61.072V67H303.798V25.192H291.942V48.514C291.942 54.13 289.056 57.016 284.532 57.016C280.008 57.016 277.356 54.13 277.356 48.514V25.192H265.5V52.258C265.5 61.852 270.726 67.78 279.696 67.78ZM358.308 67.936C371.334 67.936 381.006 58.186 381.006 46.174C381.006 34.006 371.412 24.412 358.464 24.412C345.438 24.412 335.766 34.162 335.766 46.174C335.766 58.342 345.36 67.936 358.308 67.936ZM358.464 57.718C351.912 57.718 347.466 52.336 347.466 46.174C347.466 39.856 351.522 34.63 358.308 34.63C364.86 34.63 369.306 40.012 369.306 46.174C369.306 52.492 365.25 57.718 358.464 57.718ZM389.591 67H401.447V43.678C401.447 38.062 404.333 35.176 408.857 35.176C413.381 35.176 416.033 38.062 416.033 43.678V67H427.889V39.934C427.889 30.34 422.663 24.412 413.693 24.412C407.687 24.412 404.177 27.61 401.447 31.12V25.192H389.591V67ZM458.001 67.936C465.567 67.936 471.183 64.972 475.083 60.136L468.297 54.13C465.021 57.172 462.135 58.42 458.157 58.42C452.853 58.42 449.109 55.612 447.939 50.23H477.033C477.111 49.138 477.189 48.046 477.189 47.11C477.189 35.254 470.793 24.412 456.831 24.412C444.663 24.412 436.161 34.24 436.161 46.174C436.161 59.122 445.443 67.936 458.001 67.936ZM447.783 42.82C448.719 37.438 451.917 33.928 456.831 33.928C461.823 33.928 464.943 37.516 465.645 42.82H447.783ZM25.818 157.936C38.844 157.936 48.516 148.186 48.516 136.174C48.516 124.006 38.922 114.412 25.974 114.412C12.948 114.412 3.276 124.162 3.276 136.174C3.276 148.342 12.87 157.936 25.818 157.936ZM25.974 147.718C19.422 147.718 14.976 142.336 14.976 136.174C14.976 129.856 19.032 124.63 25.818 124.63C32.37 124.63 36.816 130.012 36.816 136.174C36.816 142.492 32.76 147.718 25.974 147.718ZM59.1289 157H70.9849V125.332H80.4229V115.66H70.8289V114.022C70.8289 110.902 72.3889 109.498 75.1189 109.498C77.1469 109.498 78.7849 109.888 80.5009 110.512V100.684C78.3169 99.982 75.8209 99.514 72.0769 99.514C67.8649 99.514 64.6669 100.606 62.4829 102.79C60.2989 104.974 59.1289 108.328 59.1289 112.93V115.582H54.2149V125.332H59.1289V157ZM124.387 157.702C128.365 157.702 131.251 156.766 133.747 155.284V145.768C132.031 146.704 130.081 147.25 127.897 147.25C125.245 147.25 124.075 145.924 124.075 143.194V125.332H133.903V115.192H124.075V104.506H112.219V115.192H107.227V125.332H112.219V145.144C112.219 154.816 117.133 157.702 124.387 157.702ZM142.642 157H154.498V133.678C154.498 128.062 157.384 125.176 161.908 125.176C166.432 125.176 169.084 128.062 169.084 133.678V157H180.94V129.934C180.94 120.34 175.714 114.412 166.744 114.412C160.738 114.412 157.228 117.61 154.498 121.12V100.06H142.642V157ZM211.052 157.936C218.618 157.936 224.234 154.972 228.134 150.136L221.348 144.13C218.072 147.172 215.186 148.42 211.208 148.42C205.904 148.42 202.16 145.612 200.99 140.23H230.084C230.162 139.138 230.24 138.046 230.24 137.11C230.24 125.254 223.844 114.412 209.882 114.412C197.714 114.412 189.212 124.24 189.212 136.174C189.212 149.122 198.494 157.936 211.052 157.936ZM200.834 132.82C201.77 127.438 204.968 123.928 209.882 123.928C214.874 123.928 217.994 127.516 218.696 132.82H200.834ZM239.075 157H250.931V133.678C250.931 128.062 253.661 125.176 258.107 125.176C262.553 125.176 265.049 128.062 265.049 133.678V157H276.905V133.678C276.905 128.062 279.635 125.176 284.081 125.176C288.527 125.176 291.023 128.062 291.023 133.678V157H302.879V129.778C302.879 119.716 297.575 114.412 288.761 114.412C283.067 114.412 278.699 116.752 275.033 121.042C272.849 116.83 268.715 114.412 263.255 114.412C257.249 114.412 253.661 117.61 250.931 121.12V115.192H239.075V157ZM320.891 138.436H328.847L329.705 133.678C338.207 131.962 345.071 127.906 345.071 118C345.071 107.47 337.427 101.698 326.195 101.698C317.693 101.698 311.609 105.13 307.085 110.122L314.261 118C317.849 114.412 321.593 112.618 325.961 112.618C330.485 112.618 333.137 114.646 333.137 118.156C333.137 122.446 329.315 125.02 319.487 125.41L319.097 125.8L320.891 138.436ZM318.317 157H330.953V144.52H318.317V157Z" fill="#F9F9F9"/>
<path d="M1.17 231H3.6L6.09 225.45H17.52L19.98 231H22.53L12.96 209.85H10.74L1.17 231ZM7.02 223.32L11.82 212.61L16.59 223.32H7.02ZM26.2812 235.8H28.5912V228.03C29.7912 229.77 31.6512 231.33 34.5312 231.33C38.2812 231.33 41.9412 228.33 41.9412 223.26C41.9412 218.1 38.2512 215.16 34.5312 215.16C31.6812 215.16 29.8512 216.75 28.5912 218.61V215.49H26.2812V235.8ZM34.1112 229.26C31.2312 229.26 28.5012 226.86 28.5012 223.26C28.5012 219.66 31.2312 217.23 34.1112 217.23C37.0512 217.23 39.5712 219.57 39.5712 223.23C39.5712 227.04 37.1112 229.26 34.1112 229.26ZM46.203 235.8H48.513V228.03C49.713 229.77 51.573 231.33 54.453 231.33C58.203 231.33 61.863 228.33 61.863 223.26C61.863 218.1 58.173 215.16 54.453 215.16C51.603 215.16 49.773 216.75 48.513 218.61V215.49H46.203V235.8ZM54.033 229.26C51.153 229.26 48.423 226.86 48.423 223.26C48.423 219.66 51.153 217.23 54.033 217.23C56.973 217.23 59.493 219.57 59.493 223.23C59.493 227.04 57.033 229.26 54.033 229.26ZM66.3349 231H68.6449V209.1H66.3349V231ZM76.4058 235.89C78.7458 235.89 80.2458 234.72 81.5658 231.51L88.0758 215.49H85.6158L80.6358 228.42L74.9958 215.49H72.4458L79.4958 230.94C78.5658 233.13 77.6958 233.85 76.3158 233.85C75.3258 233.85 74.6358 233.67 73.8858 233.28L73.1058 235.11C74.1558 235.62 75.1158 235.89 76.4058 235.89ZM101.595 231H103.905V217.53H108.795V215.55H103.875V214.29C103.875 212.07 104.775 210.99 106.575 210.99C107.355 210.99 107.985 211.14 108.825 211.38V209.37C108.075 209.1 107.355 208.98 106.275 208.98C104.865 208.98 103.725 209.4 102.945 210.18C102.075 211.05 101.595 212.4 101.595 214.17V215.52H99.4645V217.53H101.595V231ZM118.527 231.36C123.207 231.36 126.657 227.64 126.657 223.26C126.657 218.82 123.237 215.16 118.587 215.16C113.907 215.16 110.487 218.88 110.487 223.26C110.487 227.7 113.877 231.36 118.527 231.36ZM118.587 229.29C115.317 229.29 112.857 226.59 112.857 223.26C112.857 219.93 115.167 217.2 118.527 217.2C121.797 217.2 124.287 219.93 124.287 223.26C124.287 226.59 121.947 229.29 118.587 229.29ZM130.842 231H133.152V224.82C133.152 220.14 135.912 217.71 139.302 217.71H139.482V215.22C136.542 215.1 134.292 216.96 133.152 219.54V215.49H130.842V231ZM156.614 231.33C159.344 231.33 161.114 230.07 162.194 228.69V231H164.474V221.52C164.474 219.54 163.934 218.04 162.854 216.96C161.744 215.85 160.034 215.25 157.844 215.25C155.564 215.25 153.914 215.79 152.204 216.57L152.894 218.46C154.334 217.8 155.774 217.35 157.604 217.35C160.514 217.35 162.194 218.79 162.194 221.55V222.03C160.814 221.64 159.434 221.37 157.454 221.37C153.524 221.37 150.824 223.11 150.824 226.44C150.824 229.68 153.704 231.33 156.614 231.33ZM157.064 229.47C154.964 229.47 153.164 228.33 153.164 226.38C153.164 224.46 154.814 223.2 157.694 223.2C159.584 223.2 161.084 223.53 162.224 223.86V225.3C162.224 227.76 159.914 229.47 157.064 229.47ZM179.231 231H181.541V217.53H186.431V215.55H181.511V214.29C181.511 212.07 182.411 210.99 184.211 210.99C184.991 210.99 185.621 211.14 186.461 211.38V209.37C185.711 209.1 184.991 208.98 183.911 208.98C182.501 208.98 181.361 209.4 180.581 210.18C179.711 211.05 179.231 212.4 179.231 214.17V215.52H177.101V217.53H179.231V231ZM189.377 231H191.687V224.82C191.687 220.14 194.447 217.71 197.837 217.71H198.017V215.22C195.077 215.1 192.827 216.96 191.687 219.54V215.49H189.377V231ZM202.241 224.19H214.541C214.571 223.83 214.571 223.59 214.571 223.38C214.571 218.82 211.931 215.16 207.341 215.16C203.051 215.16 199.901 218.76 199.901 223.26C199.901 228.09 203.381 231.36 207.641 231.36C210.581 231.36 212.471 230.19 214.031 228.45L212.591 227.16C211.331 228.48 209.831 229.35 207.701 229.35C204.971 229.35 202.571 227.46 202.241 224.19ZM202.241 222.33C202.571 219.33 204.611 217.11 207.281 217.11C210.341 217.11 211.961 219.51 212.231 222.33H202.241ZM219.995 224.19H232.295C232.325 223.83 232.325 223.59 232.325 223.38C232.325 218.82 229.685 215.16 225.095 215.16C220.805 215.16 217.655 218.76 217.655 223.26C217.655 228.09 221.135 231.36 225.395 231.36C228.335 231.36 230.225 230.19 231.785 228.45L230.345 227.16C229.085 228.48 227.585 229.35 225.455 229.35C222.725 229.35 220.325 227.46 219.995 224.19ZM219.995 222.33C220.325 219.33 222.365 217.11 225.035 217.11C228.095 217.11 229.715 219.51 229.985 222.33H219.995ZM252.353 231.36C255.263 231.36 257.123 230.1 258.683 228.36L257.153 226.95C255.923 228.27 254.453 229.29 252.473 229.29C249.233 229.29 246.773 226.62 246.773 223.26C246.773 219.87 249.173 217.2 252.323 217.2C254.423 217.2 255.863 218.19 257.093 219.48L258.563 217.92C257.123 216.39 255.293 215.16 252.353 215.16C247.823 215.16 244.403 218.88 244.403 223.26C244.403 227.67 247.823 231.36 252.353 231.36ZM267.122 231.33C269.852 231.33 271.622 230.07 272.702 228.69V231H274.982V221.52C274.982 219.54 274.442 218.04 273.362 216.96C272.252 215.85 270.542 215.25 268.352 215.25C266.072 215.25 264.422 215.79 262.712 216.57L263.402 218.46C264.842 217.8 266.282 217.35 268.112 217.35C271.022 217.35 272.702 218.79 272.702 221.55V222.03C271.322 221.64 269.942 221.37 267.962 221.37C264.032 221.37 261.332 223.11 261.332 226.44C261.332 229.68 264.212 231.33 267.122 231.33ZM267.572 229.47C265.472 229.47 263.672 228.33 263.672 226.38C263.672 224.46 265.322 223.2 268.202 223.2C270.092 223.2 271.592 223.53 272.732 223.86V225.3C272.732 227.76 270.422 229.47 267.572 229.47ZM279.875 231H282.185V224.82C282.185 220.14 284.945 217.71 288.335 217.71H288.515V215.22C285.575 215.1 283.325 216.96 282.185 219.54V215.49H279.875V231ZM292.739 224.19H305.039C305.069 223.83 305.069 223.59 305.069 223.38C305.069 218.82 302.429 215.16 297.839 215.16C293.549 215.16 290.399 218.76 290.399 223.26C290.399 228.09 293.879 231.36 298.139 231.36C301.079 231.36 302.969 230.19 304.529 228.45L303.089 227.16C301.829 228.48 300.329 229.35 298.199 229.35C295.469 229.35 293.069 227.46 292.739 224.19ZM292.739 222.33C293.069 219.33 295.109 217.11 297.779 217.11C300.839 217.11 302.459 219.51 302.729 222.33H292.739ZM310.493 224.19H322.793C322.823 223.83 322.823 223.59 322.823 223.38C322.823 218.82 320.183 215.16 315.593 215.16C311.303 215.16 308.153 218.76 308.153 223.26C308.153 228.09 311.633 231.36 315.893 231.36C318.833 231.36 320.723 230.19 322.283 228.45L320.843 227.16C319.583 228.48 318.083 229.35 315.953 229.35C313.223 229.35 310.823 227.46 310.493 224.19ZM310.493 222.33C310.823 219.33 312.863 217.11 315.533 217.11C318.593 217.11 320.213 219.51 320.483 222.33H310.493ZM326.867 231H329.177V224.82C329.177 220.14 331.937 217.71 335.327 217.71H335.507V215.22C332.567 215.1 330.317 216.96 329.177 219.54V215.49H326.867V231ZM9.57 276.36C12.48 276.36 14.34 275.1 15.9 273.36L14.37 271.95C13.14 273.27 11.67 274.29 9.69 274.29C6.45 274.29 3.99 271.62 3.99 268.26C3.99 264.87 6.39 262.2 9.54 262.2C11.64 262.2 13.08 263.19 14.31 264.48L15.78 262.92C14.34 261.39 12.51 260.16 9.57 260.16C5.04 260.16 1.62 263.88 1.62 268.26C1.62 272.67 5.04 276.36 9.57 276.36ZM26.3592 276.36C31.0392 276.36 34.4892 272.64 34.4892 268.26C34.4892 263.82 31.0692 260.16 26.4192 260.16C21.7392 260.16 18.3192 263.88 18.3192 268.26C18.3192 272.7 21.7092 276.36 26.3592 276.36ZM26.4192 274.29C23.1492 274.29 20.6892 271.59 20.6892 268.26C20.6892 264.93 22.9992 262.2 26.3592 262.2C29.6292 262.2 32.1192 264.93 32.1192 268.26C32.1192 271.59 29.7792 274.29 26.4192 274.29ZM38.6738 276H40.9838V267.12C40.9838 264.21 42.9638 262.26 45.6338 262.26C48.3638 262.26 49.9238 264.06 49.9238 266.94V276H52.2338V266.37C52.2338 262.68 50.0438 260.16 46.2938 260.16C43.6238 260.16 42.0038 261.51 40.9838 263.19V260.49H38.6738V276ZM62.2901 276.3C65.3801 276.3 67.8101 274.59 67.8101 271.65C67.8101 268.8 65.2301 267.87 62.8301 267.15C60.7601 266.52 58.8401 265.95 58.8401 264.48C58.8401 263.13 60.0101 262.17 61.8401 262.17C63.3401 262.17 64.9901 262.74 66.4301 263.67L67.4801 261.93C65.8901 260.88 63.7901 260.22 61.9001 260.22C58.8401 260.22 56.6201 261.99 56.6201 264.66C56.6201 267.57 59.3201 268.41 61.7501 269.1C63.7901 269.67 65.6201 270.27 65.6201 271.83C65.6201 273.39 64.2701 274.35 62.4101 274.35C60.5801 274.35 58.7201 273.63 57.0401 272.37L55.8701 274.02C57.6101 275.43 60.0701 276.3 62.2901 276.3ZM77.8015 276.33C80.4715 276.33 82.0615 274.98 83.1115 273.3V276H85.3915V260.49H83.1115V269.37C83.1115 272.28 81.1015 274.23 78.4615 274.23C75.7315 274.23 74.1715 272.43 74.1715 269.55V260.49H71.8615V270.12C71.8615 273.81 74.0515 276.33 77.8015 276.33ZM90.7978 276H93.1078V254.1H90.7978V276ZM103.659 276.27C104.769 276.27 105.639 276.03 106.449 275.61V273.63C105.639 274.02 104.979 274.17 104.199 274.17C102.639 274.17 101.589 273.48 101.589 271.59V262.53H106.509V260.49H101.589V255.81H99.2787V260.49H97.1187V262.53H99.2787V271.89C99.2787 275.04 101.169 276.27 103.659 276.27ZM115.218 276.33C117.948 276.33 119.718 275.07 120.798 273.69V276H123.078V266.52C123.078 264.54 122.538 263.04 121.458 261.96C120.348 260.85 118.638 260.25 116.448 260.25C114.168 260.25 112.518 260.79 110.808 261.57L111.498 263.46C112.938 262.8 114.378 262.35 116.208 262.35C119.118 262.35 120.798 263.79 120.798 266.55V267.03C119.418 266.64 118.038 266.37 116.058 266.37C112.128 266.37 109.428 268.11 109.428 271.44C109.428 274.68 112.308 276.33 115.218 276.33ZM115.668 274.47C113.568 274.47 111.768 273.33 111.768 271.38C111.768 269.46 113.418 268.2 116.298 268.2C118.188 268.2 119.688 268.53 120.828 268.86V270.3C120.828 272.76 118.518 274.47 115.668 274.47ZM133.161 276.27C134.271 276.27 135.141 276.03 135.951 275.61V273.63C135.141 274.02 134.481 274.17 133.701 274.17C132.141 274.17 131.091 273.48 131.091 271.59V262.53H136.011V260.49H131.091V255.81H128.781V260.49H126.621V262.53H128.781V271.89C128.781 275.04 130.671 276.27 133.161 276.27ZM140.16 257.1H142.8V254.55H140.16V257.1ZM140.31 276H142.62V260.49H140.31V276ZM155.06 276.36C159.74 276.36 163.19 272.64 163.19 268.26C163.19 263.82 159.77 260.16 155.12 260.16C150.44 260.16 147.02 263.88 147.02 268.26C147.02 272.7 150.41 276.36 155.06 276.36ZM155.12 274.29C151.85 274.29 149.39 271.59 149.39 268.26C149.39 264.93 151.7 262.2 155.06 262.2C158.33 262.2 160.82 264.93 160.82 268.26C160.82 271.59 158.48 274.29 155.12 274.29ZM167.375 276H169.685V267.12C169.685 264.21 171.665 262.26 174.335 262.26C177.065 262.26 178.625 264.06 178.625 266.94V276H180.935V266.37C180.935 262.68 178.745 260.16 174.995 260.16C172.325 260.16 170.705 261.51 169.685 263.19V260.49H167.375V276ZM194.855 276H197.165V267.12C197.165 264.21 199.145 262.26 201.815 262.26C204.545 262.26 206.105 264.06 206.105 266.94V276H208.415V266.37C208.415 262.68 206.225 260.16 202.475 260.16C199.805 260.16 198.185 261.51 197.165 263.19V260.49H194.855V276ZM220.422 276.36C225.102 276.36 228.552 272.64 228.552 268.26C228.552 263.82 225.132 260.16 220.482 260.16C215.802 260.16 212.382 263.88 212.382 268.26C212.382 272.7 215.772 276.36 220.422 276.36ZM220.482 274.29C217.212 274.29 214.752 271.59 214.752 268.26C214.752 264.93 217.062 262.2 220.422 262.2C223.692 262.2 226.182 264.93 226.182 268.26C226.182 271.59 223.842 274.29 220.482 274.29ZM236.085 276.12H238.125L242.325 263.88L246.495 276.12H248.505L253.965 260.49H251.565L247.485 272.94L243.285 260.43H241.365L237.195 272.94L233.115 260.49H230.655L236.085 276.12Z" fill="#F9F9F9"/>
</svg>
