<svg width="112" height="24" viewBox="0 0 112 24" fill="none" xmlns="http://www.w3.org/2000/svg">
<path d="M110.643 8.38503C111.397 8.38503 112 7.73458 112 6.93048C112 6.12639 111.397 5.47594 110.643 5.47594C109.888 5.47594 109.285 6.12639 109.285 6.93048C109.285 7.73458 109.888 8.38503 110.643 8.38503ZM110.643 8.03676C110.078 8.03676 109.631 7.5502 109.631 6.93048C109.631 6.31076 110.078 5.82421 110.643 5.82421C111.207 5.82421 111.653 6.31076 111.653 6.93048C111.653 7.5502 111.207 8.03676 110.643 8.03676ZM110.861 7.69873H111.217L110.975 7.15583C111.165 7.07901 111.25 6.92024 111.25 6.68977C111.25 6.34662 111.074 6.16224 110.666 6.16224H110.13V7.69873H110.467V7.20705H110.661L110.861 7.69873ZM110.666 6.49002C110.837 6.49002 110.894 6.56172 110.894 6.68977C110.894 6.81781 110.837 6.88439 110.666 6.88439H110.467V6.49002H110.666Z" fill="#F9F9F9"/>
<path d="M31.2241 17.6949H32.9901V12.3549L35.1313 15.6095H35.3851L37.5374 12.3187V17.6949H39.3034V9.25696H37.6367L35.3851 12.8129L33.0011 9.25696H31.2241V17.6949ZM41.2913 17.6949H45.9821V15.8868H43.0572V14.3559H45.5406V12.5478H43.0572V11.0651H45.8717V9.25696H41.2913V17.6949ZM50.8185 14.6934H52.4631V15.6095C52.2865 15.7903 51.7126 16.0314 51.249 16.0314C49.8693 16.0314 48.9643 15.0309 48.9643 13.4759C48.9643 11.7401 49.9466 10.9205 51.2159 10.9205C51.8119 10.9205 52.4852 11.1856 52.7942 11.5472L53.5337 9.99224C52.9046 9.44983 52.1541 9.1123 51.0062 9.1123C48.578 9.1123 47.088 11.053 47.088 13.4759C47.088 16.1038 48.578 17.8396 51.2269 17.8396C52.1872 17.8396 53.4344 17.3935 54.1187 16.6462V12.8853H50.8185V14.6934ZM54.6657 17.6949H56.4427L57.0828 15.923H60.1403L60.7803 17.6949H62.6678L59.4558 9.25696H57.8775L54.6657 17.6949ZM58.617 11.728L59.4778 14.1148H57.7451L58.617 11.728ZM68.7296 15.4167C68.2105 15.8385 67.6035 16.0314 67.0515 16.0314C65.661 16.0314 64.7115 14.9707 64.7115 13.4759C64.7115 11.8125 65.683 10.9205 66.875 10.9205C67.6035 10.9205 68.034 11.1615 68.4535 11.4388L69.237 9.99224C68.7735 9.49805 67.9015 9.1123 66.875 9.1123C64.215 9.1123 62.8355 11.053 62.8355 13.4759C62.8355 16.1038 64.491 17.8396 66.886 17.8396C67.9345 17.8396 68.939 17.4298 69.4025 16.8632L68.7296 15.4167ZM69.6263 17.6949H71.4033L72.0433 15.923H75.1008L75.7408 17.6949H77.6283L74.4163 9.25696H72.8383L69.6263 17.6949ZM73.5778 11.728L74.4388 14.1148H72.7058L73.5778 11.728ZM78.6174 17.6949H80.3834V12.3549L82.5244 15.6095H82.7784L84.9304 12.3187V17.6949H86.6964V9.25696H85.0299L82.7784 12.8129L80.3944 9.25696H78.6174V17.6949ZM90.4505 17.6949V14.826C90.7265 14.8622 91.146 14.8622 91.3115 14.8622C93.0995 14.8622 94.17 13.5362 94.17 12.0294C94.17 10.5709 93.3975 9.23282 91.0465 9.23282C90.4505 9.23282 89.115 9.25696 88.6845 9.25696V17.6949H90.4505ZM91.223 11.041C91.852 11.041 92.2935 11.27 92.2935 12.0174C92.2935 12.8371 91.7195 13.054 91.256 13.054C91.0025 13.054 90.7045 13.0299 90.4505 12.9938V11.0651C90.8145 11.053 90.9915 11.041 91.223 11.041ZM102.017 9.25696H100.251V13.8255C100.251 15.1756 99.931 16.0314 98.8605 16.0314C97.6239 16.0314 97.26 15.0309 97.26 13.717V9.25696H95.494V14.1269C95.494 16.598 96.8735 17.8396 98.8605 17.8396C100.516 17.8396 102.017 16.7908 102.017 14.2113V9.25696ZM106.729 15.3805C106.729 15.7783 106.465 16.0314 106.001 16.0314C105.46 16.0314 104.787 15.7542 104.345 15.1394L103.341 16.4533C103.716 17.3574 104.919 17.8396 105.957 17.8396C107.447 17.8396 108.606 16.827 108.606 15.3564C108.606 12.608 105.383 12.9456 105.383 11.5472C105.383 11.1615 105.67 10.9205 106.155 10.9205C106.729 10.9205 106.983 11.1374 107.325 11.487L108.275 10.0405C107.789 9.47391 106.994 9.1123 106.001 9.1123C104.456 9.1123 103.507 10.2454 103.507 11.5472C103.507 14.2715 106.729 14.1148 106.729 15.3805Z" fill="#F9F9F9"/>
<path d="M22.3975 21.9908C22.3975 23.0953 21.5532 24 20.5224 24H1.87255C0.844285 24 0 23.098 0 21.9908V2.00652C0 0.904704 0.844285 0 1.87507 0H20.525C21.5557 0 22.4 0.904704 22.4 2.0092V21.9908H22.3975Z" fill="#FF532D"/>
<path d="M3.39404 16.5826H5.18289V11.2426L7.35187 14.4972H7.60901L9.78916 11.2064V16.5826H11.578V8.14465H9.8898L7.60901 11.7006L5.19407 8.14465H3.39404V16.5826ZM19.003 14.3043C18.4775 14.7262 17.8626 14.9191 17.3036 14.9191C15.8949 14.9191 14.9333 13.8584 14.9333 12.3636C14.9333 10.7002 15.9172 9.80816 17.1247 9.80816C17.8626 9.80816 18.2986 10.0492 18.7234 10.3265L19.5173 8.87994C19.0477 8.38575 18.1644 8 17.1247 8C14.4302 8 13.0327 9.94074 13.0327 12.3636C13.0327 14.9915 14.7097 16.7273 17.1358 16.7273C18.198 16.7273 19.2154 16.3174 19.685 15.7509L19.003 14.3043Z" fill="#F9F9F9"/>
</svg>
