<svg width="298" height="80" viewBox="0 0 298 80" fill="none" xmlns="http://www.w3.org/2000/svg">
<path opacity="0.2" d="M32.4773 0.241741C9.49773 0.241741 1.3683 12.3293 1.3683 23.8931C1.3683 40.4127 15.6149 43.7972 28.3724 46.7788C37.2262 48.9143 44.8726 50.8079 44.8726 57.0532C44.8726 60.3168 42.9812 65.6757 30.1432 65.6757C21.3557 65.4851 12.8236 62.6799 5.63421 57.6173L0 70.3898C8.87706 76.2684 19.3423 79.2781 29.9822 79.0123C48.9776 79.0123 61.3327 69.7451 61.3327 55.4817C61.3327 39.365 46.8446 35.9806 34.2078 32.9587C25.354 30.8233 17.7076 28.9295 17.7076 22.8051C17.7076 14.7467 27.8089 13.6589 32.3163 13.6589C37.1516 13.4056 41.9717 14.3901 46.3215 16.5196L58.3948 7.49423C50.5075 2.71908 41.4925 0.132455 32.2762 0L32.4773 0.241741ZM232.774 1.49078V78.0453H249.274V56.4086H265.654L280.263 78.0453H297.89L281.148 53.145C285.913 51.2058 289.968 47.846 292.761 43.5213C295.555 39.1967 296.952 34.1164 296.763 28.9697C296.763 12.0874 284.247 1.57132 264.286 1.57132H232.814L232.774 1.49078ZM159.69 1.49078V78.0453H217.441V65.2729H176.19V45.7715H211.565V32.9989H176.311V14.3439H200.458L217.723 1.57132H159.69V1.49078ZM76.5853 1.49078V78.0453H114.979C133.974 78.0453 144.478 70.672 144.478 57.4159C144.702 53.2199 143.505 49.0709 141.08 45.6412C138.655 42.2115 135.144 39.7019 131.117 38.519L130.352 38.2773L131.117 37.9145C134.127 36.3244 136.634 33.924 138.355 30.9838C140.075 28.0437 140.942 24.6807 140.856 21.2741C140.856 8.9045 130.352 1.65186 112.685 1.65186H76.4645L76.5853 1.49078ZM93.0855 14.1022H110.592C121.699 14.1022 123.953 19.2192 123.953 23.4901C123.953 29.6145 119.325 32.8781 110.592 32.8781H93.0855V14.1022ZM249.274 14.1022H263.883C274.508 14.1022 280.263 19.34 280.263 28.728C280.263 38.116 274.508 43.7569 263.883 43.7569H249.274V14.1022ZM93.0855 45.4894H113.57C122.947 45.4894 127.696 48.753 127.696 55.24C127.696 61.727 123.068 64.9908 113.57 64.9908H93.0855V45.4894Z" fill="#1E1E1E"/>
</svg>
