<svg width="347" height="105" viewBox="0 0 347 105" fill="none" xmlns="http://www.w3.org/2000/svg">
<g opacity="0.2">
<path d="M167.049 64.8553H192.087C192.156 65.7624 192.156 66.8075 192.156 67.6455C192.156 83.2677 180.857 91.2883 168.791 91.2883C154.284 91.2883 143.961 80.8259 143.961 66.2504C143.961 52.0923 154.284 41.2109 168.791 41.2109C177.858 41.2109 186.158 45.9533 190.204 54.7413L184.483 56.5538C181.345 50.6251 175.416 47.1381 168.791 47.1381C158.19 47.1381 150.587 54.95 150.587 66.2489C150.587 77.5477 158.189 85.358 168.791 85.358C177.648 85.358 185.32 80.3363 186.227 70.7809H167.047V64.8553H167.049Z" fill="#1E1E1E"/>
<path d="M199.83 54.3927H205.688V58.578C206.664 55.5791 209.733 53.7666 213.988 53.7666C215.172 53.7666 216.778 53.9063 217.335 54.115V59.7644C216.428 59.416 215.242 59.2764 214.057 59.2764C208.616 59.2764 205.688 62.2062 205.688 67.297V90.662H199.83V54.3927Z" fill="#1E1E1E"/>
<path d="M239.794 53.7646C251.093 53.7646 259.045 61.6456 259.045 72.4564C259.045 83.4068 251.164 91.2878 239.725 91.2878C228.566 91.2878 220.545 83.4068 220.545 72.4564C220.544 61.6456 228.356 53.7646 239.794 53.7646ZM239.724 85.778C247.536 85.778 252.906 80.3373 252.906 72.4564C252.906 64.6445 247.256 59.2744 239.724 59.2744C232.191 59.2744 226.681 64.5754 226.681 72.4564C226.681 80.2683 232.051 85.778 239.724 85.778Z" fill="#1E1E1E"/>
<path d="M293.219 84.8722C291.336 88.7781 286.733 91.289 281.432 91.289C271.598 91.289 266.507 86.3363 266.507 75.1787V54.3936H272.365V74.3407C272.365 80.5488 274.458 85.7792 282.617 85.7792C288.963 85.7792 293.218 81.8042 293.218 75.039V54.3936H299.076V90.6613H293.218V84.8722H293.219Z" fill="#1E1E1E"/>
<path d="M315.398 85.1503V104.609H309.54V54.3924H315.398V60.8782C317.839 56.6239 322.442 53.7646 329.138 53.7646C339.042 53.7646 346.644 60.8092 346.644 72.2477C346.644 83.5465 339.251 91.2878 328.65 91.2878C322.094 91.2878 317.978 88.9856 315.398 85.1503ZM340.506 72.3873C340.506 64.2977 335.276 59.276 327.952 59.276C320.28 59.276 315.398 64.0874 315.398 71.9699V73.296C315.398 81.7356 321.118 85.7796 328.161 85.7796C335.555 85.778 340.506 80.5476 340.506 72.3873Z" fill="#1E1E1E"/>
<path d="M85.785 90.6601L75.6709 73.8499L65.7672 90.6601H53.9097L69.1427 65.3413L53.6162 41.835H66.0041L75.9503 57.5294L85.4366 41.835H97.2941L82.0187 66.1086L97.7131 90.6601H85.785Z" fill="#1E1E1E"/>
<path d="M136.256 74.0629C136.256 84.8047 128.165 91.5008 117.563 91.5008C108.216 91.5008 100.348 86.3394 99.582 75.1096H109.696C110.393 79.9917 114.3 82.0851 118.555 82.0851C123.856 82.0851 126.144 78.5275 126.144 73.9248C126.144 69.1118 122.586 66.1129 117.633 66.1129C113.519 66.1129 110.798 68.0667 109.542 70.1585H99.8755L103.216 41.8408H135.012L133.951 51.3271H111.206L110.302 60.6973C110.302 60.6973 112.69 57.8836 119.931 57.8836C128.653 57.8805 136.256 63.7355 136.256 74.0629Z" fill="#1E1E1E"/>
<path d="M100.778 35.7577C95.3889 14.756 78.2978 0 42.8257 0H0L5.81419 39.3106C10.1878 74.7811 23.7542 86.1929 47.7611 90.3954C47.8726 90.4127 48.6337 90.521 48.6431 89.6312C48.6462 89.3111 48.4438 89.0349 48.166 88.9156C31.9381 82.0829 30.0863 59.6767 26.6198 37.192L23.9379 19.2739H48.3857C70.9253 19.2739 88.3287 18.9177 99.3451 36.3179C99.5083 36.5627 99.7641 36.7432 100.067 36.7432C100.492 36.7432 100.809 36.398 100.809 35.9727C100.809 35.8958 100.798 35.8236 100.778 35.7577Z" fill="#1E1E1E"/>
</g>
</svg>
