<svg width="225" height="49" viewBox="0 0 225 49" fill="none" xmlns="http://www.w3.org/2000/svg">
<path d="M221.681 17.2145C223.192 17.2145 224.4 15.9136 224.4 14.3054C224.4 12.6972 223.192 11.3963 221.681 11.3963C220.168 11.3963 218.96 12.6972 218.96 14.3054C218.96 15.9136 220.168 17.2145 221.681 17.2145ZM221.681 16.518C220.549 16.518 219.655 15.5448 219.655 14.3054C219.655 13.066 220.549 12.0929 221.681 12.0929C222.811 12.0929 223.705 13.066 223.705 14.3054C223.705 15.5448 222.811 16.518 221.681 16.518ZM222.118 15.8419H222.831L222.346 14.7561C222.727 14.6025 222.897 14.2849 222.897 13.824C222.897 13.1377 222.546 12.7689 221.728 12.7689H220.653V15.8419H221.328V14.8585H221.718L222.118 15.8419ZM221.728 13.4245C222.07 13.4245 222.184 13.5679 222.184 13.824C222.184 14.0801 222.07 14.2132 221.728 14.2132H221.328V13.4245H221.728Z" fill="#1E1E1E"/>
<path d="M62.5601 35.8343H66.0983V25.1542L70.3883 31.6635H70.8969L75.2092 25.0819V35.8343H78.7474V18.9583H75.4082L70.8969 26.0703L66.1204 18.9583H62.5601V35.8343ZM82.7303 35.8343H92.1287V32.218H86.2685V29.1562H91.2441V25.5399H86.2685V22.5747H91.9076V18.9583H82.7303V35.8343ZM101.819 29.8313H105.114V31.6635C104.76 32.0251 103.61 32.5073 102.681 32.5073C99.917 32.5073 98.1037 30.5062 98.1037 27.3963C98.1037 23.9247 100.072 22.2854 102.615 22.2854C103.809 22.2854 105.158 22.8157 105.777 23.5389L107.259 20.4289C105.998 19.3441 104.495 18.669 102.195 18.669C97.3297 18.669 94.3444 22.5505 94.3444 27.3963C94.3444 32.652 97.3297 36.1236 102.637 36.1236C104.561 36.1236 107.06 35.2315 108.431 33.7368V26.215H101.819V29.8313ZM109.527 35.8343H113.087L114.37 32.2904H120.496L121.778 35.8343H125.56L119.124 18.9583H115.962L109.527 35.8343ZM117.444 23.9005L119.168 28.6741H115.697L117.444 23.9005ZM137.705 31.2777C136.665 32.1215 135.449 32.5073 134.343 32.5073C131.557 32.5073 129.654 30.3858 129.654 27.3963C129.654 24.0694 131.601 22.2854 133.989 22.2854C135.449 22.2854 136.311 22.7674 137.152 23.322L138.722 20.4289C137.793 19.4405 136.046 18.669 133.989 18.669C128.66 18.669 125.896 22.5505 125.896 27.3963C125.896 32.652 129.213 36.1236 134.011 36.1236C136.112 36.1236 138.125 35.3039 139.053 34.1708L137.705 31.2777ZM139.502 35.8343H143.062L144.344 32.2904H150.47L151.752 35.8343H155.534L149.099 18.9583H145.937L139.502 35.8343ZM147.419 23.9005L149.144 28.6741H145.672L147.419 23.9005ZM157.516 35.8343H161.054V25.1542L165.344 31.6635H165.853L170.164 25.0819V35.8343H173.703V18.9583H170.364L165.853 26.0703L161.076 18.9583H157.516V35.8343ZM181.224 35.8343V30.0965C181.777 30.1688 182.618 30.1688 182.949 30.1688C186.532 30.1688 188.677 27.5168 188.677 24.5033C188.677 21.5862 187.129 18.9101 182.418 18.9101C181.224 18.9101 178.549 18.9583 177.686 18.9583V35.8343H181.224ZM182.772 22.5264C184.032 22.5264 184.917 22.9844 184.917 24.4791C184.917 26.1186 183.767 26.5525 182.838 26.5525C182.33 26.5525 181.733 26.5043 181.224 26.432V22.5747C181.954 22.5505 182.308 22.5264 182.772 22.5264ZM204.399 18.9583H200.86V28.0954C200.86 30.7956 200.219 32.5073 198.074 32.5073C195.597 32.5073 194.868 30.5062 194.868 27.8784V18.9583H191.329V28.6982C191.329 33.6404 194.093 36.1236 198.074 36.1236C201.391 36.1236 204.399 34.0261 204.399 28.8669V18.9583ZM213.84 31.2054C213.84 32.0011 213.31 32.5073 212.381 32.5073C211.298 32.5073 209.948 31.9528 209.064 30.7233L207.051 33.3511C207.804 35.1592 210.214 36.1236 212.293 36.1236C215.278 36.1236 217.6 34.0984 217.6 31.1573C217.6 25.6605 211.143 26.3356 211.143 23.5389C211.143 22.7674 211.718 22.2854 212.69 22.2854C213.84 22.2854 214.349 22.7193 215.034 23.4184L216.937 20.5254C215.963 19.3923 214.371 18.669 212.381 18.669C209.285 18.669 207.384 20.9352 207.384 23.5389C207.384 28.9875 213.84 28.6741 213.84 31.2054Z" fill="#1E1E1E"/>
<path d="M44.8749 44.426C44.8749 46.635 43.1834 48.4444 41.1182 48.4444H3.75178C1.69159 48.4444 0 46.6405 0 44.426V4.45749C0 2.25385 1.69159 0.444443 3.75684 0.444443H41.1232C43.1885 0.444443 44.88 2.25385 44.88 4.46285V44.426H44.8749Z" fill="#FF532D"/>
<path d="M6.7998 33.6097H10.3839V22.9296L14.7296 29.4389H15.2448L19.6129 22.8573V33.6097H23.1969V16.7338H19.8145L15.2448 23.8457L10.4063 16.7338H6.7998V33.6097ZM38.0734 29.0531C37.0206 29.8969 35.7886 30.2827 34.6686 30.2827C31.8461 30.2827 29.9196 28.1612 29.9196 25.1717C29.9196 21.8448 31.8908 20.0608 34.3101 20.0608C35.7886 20.0608 36.6622 20.5428 37.5134 21.0974L39.1038 18.2043C38.163 17.2159 36.3934 16.4444 34.3101 16.4444C28.9115 16.4444 26.1115 20.3259 26.1115 25.1717C26.1115 30.4274 29.4716 33.899 34.3325 33.899C36.4605 33.899 38.499 33.0793 39.4398 31.9462L38.0734 29.0531Z" fill="#F9F9F9"/>
</svg>
