<svg width="187" height="40" viewBox="0 0 187 40" fill="none" xmlns="http://www.w3.org/2000/svg">
<path d="M184.734 13.9754C185.993 13.9754 187 12.8914 187 11.5512C187 10.211 185.993 9.12695 184.734 9.12695C183.474 9.12695 182.467 10.211 182.467 11.5512C182.467 12.8914 183.474 13.9754 184.734 13.9754ZM184.734 13.395C183.791 13.395 183.046 12.5841 183.046 11.5512C183.046 10.5183 183.791 9.70741 184.734 9.70741C185.676 9.70741 186.421 10.5183 186.421 11.5512C186.421 12.5841 185.676 13.395 184.734 13.395ZM185.098 12.8316H185.693L185.289 11.9268C185.606 11.7987 185.748 11.5341 185.748 11.15C185.748 10.5781 185.455 10.2708 184.774 10.2708H183.878V12.8316H184.44V12.0121H184.765L185.098 12.8316ZM184.774 10.8171C185.059 10.8171 185.153 10.9366 185.153 11.15C185.153 11.3634 185.059 11.4744 184.774 11.4744H184.44V10.8171H184.774Z" fill="#F9F9F9"/>
<path d="M52.1333 29.4919H55.0818V20.5918L58.6568 26.0162H59.0807L62.6743 20.5315V29.4919H65.6228V15.4286H62.84L59.0807 21.3552L55.1003 15.4286H52.1333V29.4919ZM68.9419 29.4919H76.7738V26.4783H71.8904V23.9268H76.0367V20.9132H71.8904V18.4422H76.5896V15.4286H68.9419V29.4919ZM84.8489 24.4894H87.5948V26.0162C87.2999 26.3175 86.3417 26.7194 85.5676 26.7194C83.2641 26.7194 81.753 25.0518 81.753 22.4602C81.753 19.5672 83.3932 18.2011 85.5124 18.2011C86.5075 18.2011 87.6317 18.643 88.1477 19.2457L89.3824 16.6541C88.3319 15.75 87.0788 15.1875 85.1623 15.1875C81.108 15.1875 78.6203 18.4221 78.6203 22.4602C78.6203 26.84 81.108 29.733 85.5308 29.733C87.1341 29.733 89.2165 28.9896 90.359 27.744V21.4758H84.8489V24.4894ZM91.2723 29.4919H94.2393L95.3081 26.5386H100.413L101.482 29.4919H104.633L99.2702 15.4286H96.635L91.2723 29.4919ZM97.8697 19.5471L99.3069 23.525H96.4138L97.8697 19.5471ZM114.754 25.6947C113.887 26.3979 112.874 26.7194 111.952 26.7194C109.631 26.7194 108.045 24.9515 108.045 22.4602C108.045 19.6878 109.667 18.2011 111.658 18.2011C112.874 18.2011 113.593 18.6028 114.293 19.065L115.601 16.6541C114.827 15.8304 113.371 15.1875 111.658 15.1875C107.216 15.1875 104.913 18.4221 104.913 22.4602C104.913 26.84 107.677 29.733 111.676 29.733C113.427 29.733 115.104 29.0499 115.878 28.1057L114.754 25.6947ZM116.251 29.4919H119.218L120.287 26.5386H125.392L126.46 29.4919H129.612L124.249 15.4286H121.614L116.251 29.4919ZM122.849 19.5471L124.286 23.525H121.393L122.849 19.5471ZM131.263 29.4919H134.212V20.5918L137.786 26.0162H138.211L141.804 20.5315V29.4919H144.752V15.4286H141.97L138.211 21.3552L134.23 15.4286H131.263V29.4919ZM151.02 29.4919V24.7104C151.481 24.7706 152.181 24.7706 152.458 24.7706C155.443 24.7706 157.23 22.5607 157.23 20.0494C157.23 17.6184 155.941 15.3884 152.015 15.3884C151.02 15.3884 148.79 15.4286 148.072 15.4286V29.4919H151.02ZM152.31 18.402C153.36 18.402 154.097 18.7837 154.097 20.0292C154.097 21.3954 153.139 21.757 152.365 21.757C151.942 21.757 151.444 21.7169 151.02 21.6566V18.4422C151.628 18.4221 151.924 18.402 152.31 18.402ZM170.332 15.4286H167.383V23.0428C167.383 25.2929 166.849 26.7194 165.062 26.7194C162.997 26.7194 162.39 25.0518 162.39 22.862V15.4286H159.441V23.5451C159.441 27.6636 161.744 29.733 165.062 29.733C167.826 29.733 170.332 27.9851 170.332 23.6858V15.4286ZM178.2 25.6345C178.2 26.2975 177.759 26.7194 176.984 26.7194C176.081 26.7194 174.957 26.2573 174.22 25.2327L172.543 27.4225C173.17 28.9293 175.178 29.733 176.91 29.733C179.398 29.733 181.333 28.0453 181.333 25.5944C181.333 21.0137 175.952 21.5763 175.952 19.2457C175.952 18.6028 176.431 18.2011 177.242 18.2011C178.2 18.2011 178.624 18.5627 179.195 19.1453L180.781 16.7344C179.969 15.7902 178.643 15.1875 176.984 15.1875C174.404 15.1875 172.82 17.076 172.82 19.2457C172.82 23.7862 178.2 23.525 178.2 25.6345Z" fill="#F9F9F9"/>
<path d="M37.3958 36.6513C37.3958 38.4921 35.9861 40 34.2651 40H3.12648C1.40966 40 0 38.4967 0 36.6513V3.34421C0 1.50784 1.40966 0 3.1307 0H34.2694C35.9904 0 37.4 1.50784 37.4 3.34867V36.6513H37.3958Z" fill="#FF532D"/>
<path d="M5.6665 27.6384H8.65324V18.7383L12.2747 24.1627H12.704L16.3441 18.678V27.6384H19.3308V13.5751H16.5121L12.704 19.5017L8.6719 13.5751H5.6665V27.6384ZM31.7278 23.8412C30.8505 24.5444 29.8238 24.8658 28.8905 24.8658C26.5384 24.8658 24.933 23.0979 24.933 20.6067C24.933 17.8343 26.5757 16.3476 28.5918 16.3476C29.8238 16.3476 30.5518 16.7493 31.2611 17.2115L32.5865 14.8005C31.8025 13.9769 30.3278 13.334 28.5918 13.334C24.093 13.334 21.7596 16.5686 21.7596 20.6067C21.7596 24.9864 24.5597 27.8794 28.6104 27.8794C30.3838 27.8794 32.0825 27.1964 32.8665 26.2521L31.7278 23.8412Z" fill="white"/>
</svg>
